# xmcd
#
# Track frame offsets: 
#        150
#        3975
#        19472
#        35222
#        51762
#        89325
#        102537
#        121615
#        144475
#        166512
#
# Disc length: 2338 seconds
#
# Revision: 6
# Processed by: cddbd v1.5.2PL0 Copyright (c) Steve Scherf et al.
# Submitted via: ExactAudioCopy v1.1
#
DISCID=7b09200a
DTITLE=Free - Tons Of Sobs
DYEAR=1967
DGENRE=Blues
TTITLE0=Over The Green Hills (Part I)
TTITLE1=Worry
TTITLE2=Walk In My Shadow
TTITLE3=Wild Indian Woman
TTITLE4=Goin' Down Slow
TTITLE5=I'm A Mover
TTITLE6=The Hunter
TTITLE7=Moonshine
TTITLE8=Sweet Tooth
TTITLE9=Over The Green Hills (Part II)
EXTD=YEAR: 1968
EXTT0=
EXTT1=
EXTT2=
EXTT3=
EXTT4=
EXTT5=
EXTT6=
EXTT7=
EXTT8=
EXTT9=
PLAYORDER=
